<?plantuml 1.2026.2?><svg xmlns="http://www.w3.org/2000/svg" xmlns:xlink="http://www.w3.org/1999/xlink" contentStyleType="text/css" data-diagram-type="ACTIVITY" height="627px" preserveAspectRatio="none" style="width:413px;height:627px;background:#FFFFFF;" version="1.1" viewBox="0 0 413 627" width="413px" zoomAndPan="magnify"><defs/><g><ellipse cx="223.5063" cy="20" fill="#222222" rx="10" ry="10" style="stroke:#222222;stroke-width:1;"/><rect fill="#F8FAFC" height="32" rx="12.5" ry="12.5" style="stroke:#334155;stroke-width:0.5;" width="128" x="159.5063" y="50"/><text fill="#000000" font-family="Helvetica" font-size="12" lengthAdjust="spacing" textLength="108" x="169.5063" y="69.2402">&#31649;&#29702;&#21592;&#36827;&#20837;&#22791;&#20221;&#39029;&#38754;</text><polygon fill="#F8FAFC" points="181.9475,102,265.0652,102,277.0652,114,265.0652,126,181.9475,126,169.9475,114,181.9475,102" style="stroke:#334155;stroke-width:0.5;"/><text fill="#000000" font-family="Helvetica" font-size="11" lengthAdjust="spacing" textLength="83.1177" x="181.9475" y="116.9702">&#36873;&#25321;&#25968;&#25454;&#24211;&#23548;&#20986;?</text><text fill="#000000" font-family="Helvetica" font-size="11" lengthAdjust="spacing" textLength="11" x="158.9475" y="111.4702">&#26159;</text><text fill="#000000" font-family="Helvetica" font-size="11" lengthAdjust="spacing" textLength="11" x="277.0652" y="111.4702">&#21542;</text><rect fill="#F8FAFC" height="32" rx="12.5" ry="12.5" style="stroke:#334155;stroke-width:0.5;" width="212" x="14.6709" y="136"/><text fill="#000000" font-family="Helvetica" font-size="12" lengthAdjust="spacing" textLength="192" x="24.6709" y="155.2402">&#35835;&#21462;&#39033;&#30446;&#12289;&#29256;&#26412;&#12289;&#20998;&#31867;&#12289;&#31508;&#35760;&#12289;&#27491;&#25991;</text><rect fill="#F8FAFC" height="32" rx="12.5" ry="12.5" style="stroke:#334155;stroke-width:0.5;" width="219.3418" x="11" y="188"/><text fill="#000000" font-family="Helvetica" font-size="12" lengthAdjust="spacing" textLength="199.3418" x="21" y="207.2402">&#35835;&#21462;&#37197;&#32622;&#12289;Merkle Tree &#19982; cNFT &#25968;&#25454;</text><rect fill="#F8FAFC" height="32" rx="12.5" ry="12.5" style="stroke:#334155;stroke-width:0.5;" width="105.3535" x="67.9941" y="240"/><text fill="#000000" font-family="Helvetica" font-size="12" lengthAdjust="spacing" textLength="85.3535" x="77.9941" y="259.2402">&#36716;&#25442; BigInt &#23383;&#27573;</text><rect fill="#F8FAFC" height="32" rx="12.5" ry="12.5" style="stroke:#334155;stroke-width:0.5;" width="106.6719" x="67.335" y="292"/><text fill="#000000" font-family="Helvetica" font-size="12" lengthAdjust="spacing" textLength="86.6719" x="77.335" y="311.2402">&#36755;&#20986; JSON &#22791;&#20221;</text><rect fill="#F8FAFC" height="32" rx="12.5" ry="12.5" style="stroke:#334155;stroke-width:0.5;" width="152" x="250.3418" y="136"/><text fill="#000000" font-family="Helvetica" font-size="12" lengthAdjust="spacing" textLength="132" x="260.3418" y="155.2402">&#36873;&#25321;&#25991;&#20214;&#23548;&#20986;&#25110;&#23548;&#20837;&#24674;&#22797;</text><polygon fill="#F8FAFC" points="223.5063,330,235.5063,342,223.5063,354,211.5063,342,223.5063,330" style="stroke:#334155;stroke-width:0.5;"/><polygon fill="#F8FAFC" points="187.4475,374,259.5652,374,271.5652,386,259.5652,398,187.4475,398,175.4475,386,187.4475,374" style="stroke:#334155;stroke-width:0.5;"/><text fill="#000000" font-family="Helvetica" font-size="11" lengthAdjust="spacing" textLength="72.1177" x="187.4475" y="388.9702">&#25191;&#34892;&#23548;&#20837;&#24674;&#22797;?</text><text fill="#000000" font-family="Helvetica" font-size="11" lengthAdjust="spacing" textLength="11" x="164.4475" y="383.4702">&#26159;</text><text fill="#000000" font-family="Helvetica" font-size="11" lengthAdjust="spacing" textLength="11" x="271.5652" y="383.4702">&#21542;</text><rect fill="#F8FAFC" height="32" rx="12.5" ry="12.5" style="stroke:#334155;stroke-width:0.5;" width="116" x="100.5063" y="408"/><text fill="#000000" font-family="Helvetica" font-size="12" lengthAdjust="spacing" textLength="96" x="110.5063" y="427.2402">&#26657;&#39564;&#22791;&#20221;&#25991;&#20214;&#32467;&#26500;</text><rect fill="#F8FAFC" height="32" rx="12.5" ry="12.5" style="stroke:#334155;stroke-width:0.5;" width="128" x="94.5063" y="460"/><text fill="#000000" font-family="Helvetica" font-size="12" lengthAdjust="spacing" textLength="108" x="104.5063" y="479.2402">&#25353;&#19994;&#21153;&#23545;&#35937;&#24674;&#22797;&#25968;&#25454;</text><rect fill="#F8FAFC" height="32" rx="12.5" ry="12.5" style="stroke:#334155;stroke-width:0.5;" width="92" x="112.5063" y="512"/><text fill="#000000" font-family="Helvetica" font-size="12" lengthAdjust="spacing" textLength="72" x="122.5063" y="531.2402">&#24674;&#22797;&#25991;&#20214;&#36164;&#28304;</text><rect fill="#F8FAFC" height="32" rx="12.5" ry="12.5" style="stroke:#334155;stroke-width:0.5;" width="92" x="242.5063" y="408"/><text fill="#000000" font-family="Helvetica" font-size="12" lengthAdjust="spacing" textLength="72" x="252.5063" y="427.2402">&#32467;&#26463;&#24403;&#21069;&#25805;&#20316;</text><polygon fill="#F8FAFC" points="223.5063,550,235.5063,562,223.5063,574,211.5063,562,223.5063,550" style="stroke:#334155;stroke-width:0.5;"/><ellipse cx="223.5063" cy="605" fill="none" rx="11" ry="11" style="stroke:#222222;stroke-width:1;"/><ellipse cx="223.5063" cy="605" fill="#222222" rx="6" ry="6" style="stroke:#222222;stroke-width:1;"/><line style="stroke:#334155;stroke-width:1;" x1="223.5063" x2="223.5063" y1="30" y2="50"/><polygon fill="#334155" points="219.5063,40,223.5063,50,227.5063,40,223.5063,44" style="stroke:#334155;stroke-width:1;"/><line style="stroke:#334155;stroke-width:1;" x1="120.6709" x2="120.6709" y1="168" y2="188"/><polygon fill="#334155" points="116.6709,178,120.6709,188,124.6709,178,120.6709,182" style="stroke:#334155;stroke-width:1;"/><line style="stroke:#334155;stroke-width:1;" x1="120.6709" x2="120.6709" y1="220" y2="240"/><polygon fill="#334155" points="116.6709,230,120.6709,240,124.6709,230,120.6709,234" style="stroke:#334155;stroke-width:1;"/><line style="stroke:#334155;stroke-width:1;" x1="120.6709" x2="120.6709" y1="272" y2="292"/><polygon fill="#334155" points="116.6709,282,120.6709,292,124.6709,282,120.6709,286" style="stroke:#334155;stroke-width:1;"/><line style="stroke:#334155;stroke-width:1;" x1="169.9475" x2="120.6709" y1="114" y2="114"/><line style="stroke:#334155;stroke-width:1;" x1="120.6709" x2="120.6709" y1="114" y2="136"/><polygon fill="#334155" points="116.6709,126,120.6709,136,124.6709,126,120.6709,130" style="stroke:#334155;stroke-width:1;"/><line style="stroke:#334155;stroke-width:1;" x1="277.0652" x2="326.3418" y1="114" y2="114"/><line style="stroke:#334155;stroke-width:1;" x1="326.3418" x2="326.3418" y1="114" y2="136"/><polygon fill="#334155" points="322.3418,126,326.3418,136,330.3418,126,326.3418,130" style="stroke:#334155;stroke-width:1;"/><line style="stroke:#334155;stroke-width:1;" x1="120.6709" x2="120.6709" y1="324" y2="342"/><line style="stroke:#334155;stroke-width:1;" x1="120.6709" x2="211.5063" y1="342" y2="342"/><polygon fill="#334155" points="201.5063,338,211.5063,342,201.5063,346,205.5063,342" style="stroke:#334155;stroke-width:1;"/><line style="stroke:#334155;stroke-width:1;" x1="326.3418" x2="326.3418" y1="168" y2="342"/><line style="stroke:#334155;stroke-width:1;" x1="326.3418" x2="235.5063" y1="342" y2="342"/><polygon fill="#334155" points="245.5063,338,235.5063,342,245.5063,346,241.5063,342" style="stroke:#334155;stroke-width:1;"/><line style="stroke:#334155;stroke-width:1;" x1="223.5063" x2="223.5063" y1="82" y2="102"/><polygon fill="#334155" points="219.5063,92,223.5063,102,227.5063,92,223.5063,96" style="stroke:#334155;stroke-width:1;"/><line style="stroke:#334155;stroke-width:1;" x1="158.5063" x2="158.5063" y1="440" y2="460"/><polygon fill="#334155" points="154.5063,450,158.5063,460,162.5063,450,158.5063,454" style="stroke:#334155;stroke-width:1;"/><line style="stroke:#334155;stroke-width:1;" x1="158.5063" x2="158.5063" y1="492" y2="512"/><polygon fill="#334155" points="154.5063,502,158.5063,512,162.5063,502,158.5063,506" style="stroke:#334155;stroke-width:1;"/><line style="stroke:#334155;stroke-width:1;" x1="175.4475" x2="158.5063" y1="386" y2="386"/><line style="stroke:#334155;stroke-width:1;" x1="158.5063" x2="158.5063" y1="386" y2="408"/><polygon fill="#334155" points="154.5063,398,158.5063,408,162.5063,398,158.5063,402" style="stroke:#334155;stroke-width:1;"/><line style="stroke:#334155;stroke-width:1;" x1="271.5652" x2="288.5063" y1="386" y2="386"/><line style="stroke:#334155;stroke-width:1;" x1="288.5063" x2="288.5063" y1="386" y2="408"/><polygon fill="#334155" points="284.5063,398,288.5063,408,292.5063,398,288.5063,402" style="stroke:#334155;stroke-width:1;"/><line style="stroke:#334155;stroke-width:1;" x1="158.5063" x2="158.5063" y1="544" y2="562"/><line style="stroke:#334155;stroke-width:1;" x1="158.5063" x2="211.5063" y1="562" y2="562"/><polygon fill="#334155" points="201.5063,558,211.5063,562,201.5063,566,205.5063,562" style="stroke:#334155;stroke-width:1;"/><line style="stroke:#334155;stroke-width:1;" x1="288.5063" x2="288.5063" y1="440" y2="562"/><line style="stroke:#334155;stroke-width:1;" x1="288.5063" x2="235.5063" y1="562" y2="562"/><polygon fill="#334155" points="245.5063,558,235.5063,562,245.5063,566,241.5063,562" style="stroke:#334155;stroke-width:1;"/><line style="stroke:#334155;stroke-width:1;" x1="223.5063" x2="223.5063" y1="354" y2="374"/><polygon fill="#334155" points="219.5063,364,223.5063,374,227.5063,364,223.5063,368" style="stroke:#334155;stroke-width:1;"/><line style="stroke:#334155;stroke-width:1;" x1="223.5063" x2="223.5063" y1="574" y2="594"/><polygon fill="#334155" points="219.5063,584,223.5063,594,227.5063,584,223.5063,588" style="stroke:#334155;stroke-width:1;"/></g></svg>