<?plantuml 1.2026.2?><svg xmlns="http://www.w3.org/2000/svg" xmlns:xlink="http://www.w3.org/1999/xlink" contentStyleType="text/css" data-diagram-type="ACTIVITY" height="783px" preserveAspectRatio="none" style="width:296px;height:783px;background:#FFFFFF;" version="1.1" viewBox="0 0 296 783" width="296px" zoomAndPan="magnify"><defs/><g><ellipse cx="164.7939" cy="20" fill="#222222" rx="10" ry="10" style="stroke:#222222;stroke-width:1;"/><rect fill="#F8FAFC" height="32" rx="12.5" ry="12.5" style="stroke:#334155;stroke-width:0.5;" width="104" x="112.7939" y="50"/><text fill="#000000" font-family="Helvetica" font-size="12" lengthAdjust="spacing" textLength="84" x="122.7939" y="69.2402">&#31649;&#29702;&#21592;&#30331;&#24405;&#21518;&#21488;</text><rect fill="#F8FAFC" height="32" rx="12.5" ry="12.5" style="stroke:#334155;stroke-width:0.5;" width="104" x="112.7939" y="102"/><text fill="#000000" font-family="Helvetica" font-size="12" lengthAdjust="spacing" textLength="84" x="122.7939" y="121.2402">&#21019;&#24314;&#25110;&#36873;&#25321;&#39033;&#30446;</text><rect fill="#F8FAFC" height="32" rx="12.5" ry="12.5" style="stroke:#334155;stroke-width:0.5;" width="92" x="118.7939" y="154"/><text fill="#000000" font-family="Helvetica" font-size="12" lengthAdjust="spacing" textLength="72" x="128.7939" y="173.2402">&#32500;&#25252;&#39033;&#30446;&#29256;&#26412;</text><rect fill="#F8FAFC" height="32" rx="12.5" ry="12.5" style="stroke:#334155;stroke-width:0.5;" width="68" x="130.7939" y="206"/><text fill="#000000" font-family="Helvetica" font-size="12" lengthAdjust="spacing" textLength="48" x="140.7939" y="225.2402">&#21019;&#24314;&#20998;&#31867;</text><rect fill="#F8FAFC" height="32" rx="12.5" ry="12.5" style="stroke:#334155;stroke-width:0.5;" width="92" x="118.7939" y="258"/><text fill="#000000" font-family="Helvetica" font-size="12" lengthAdjust="spacing" textLength="72" x="128.7939" y="277.2402">&#21019;&#24314;&#31508;&#35760;&#26465;&#30446;</text><rect fill="#F8FAFC" height="32" rx="12.5" ry="12.5" style="stroke:#334155;stroke-width:0.5;" width="92" x="118.7939" y="310"/><text fill="#000000" font-family="Helvetica" font-size="12" lengthAdjust="spacing" textLength="72" x="128.7939" y="329.2402">&#32534;&#36753;&#27491;&#25991;&#29256;&#26412;</text><polygon fill="#F8FAFC" points="117.7351,362,211.8528,362,223.8528,374,211.8528,386,117.7351,386,105.7351,374,117.7351,362" style="stroke:#334155;stroke-width:0.5;"/><text fill="#000000" font-family="Helvetica" font-size="11" lengthAdjust="spacing" textLength="94.1177" x="117.7351" y="376.9702">&#26159;&#21542;&#35774;&#32622;&#20026;&#20027;&#29256;&#26412;?</text><text fill="#000000" font-family="Helvetica" font-size="11" lengthAdjust="spacing" textLength="11" x="94.7351" y="371.4702">&#26159;</text><text fill="#000000" font-family="Helvetica" font-size="11" lengthAdjust="spacing" textLength="11" x="223.8528" y="371.4702">&#21542;</text><rect fill="#F8FAFC" height="32" rx="12.5" ry="12.5" style="stroke:#334155;stroke-width:0.5;" width="125.0176" x="33.2263" y="396"/><text fill="#000000" font-family="Helvetica" font-size="12" lengthAdjust="spacing" textLength="105.0176" x="43.2263" y="415.2402">&#26631;&#35760; isPrimary=true</text><rect fill="#F8FAFC" height="32" rx="12.5" ry="12.5" style="stroke:#334155;stroke-width:0.5;" width="104" x="181.8528" y="396"/><text fill="#000000" font-family="Helvetica" font-size="12" lengthAdjust="spacing" textLength="84" x="191.8528" y="415.2402">&#20445;&#30041;&#20026;&#21382;&#21490;&#29256;&#26412;</text><polygon fill="#F8FAFC" points="164.7939,434,176.7939,446,164.7939,458,152.7939,446,164.7939,434" style="stroke:#334155;stroke-width:0.5;"/><rect fill="#F8FAFC" height="32" rx="12.5" ry="12.5" style="stroke:#334155;stroke-width:0.5;" width="92" x="118.7939" y="478"/><text fill="#000000" font-family="Helvetica" font-size="12" lengthAdjust="spacing" textLength="72" x="128.7939" y="497.2402">&#20445;&#23384;&#27491;&#25991;&#20869;&#23481;</text><polygon fill="#F8FAFC" points="117.7351,530,211.8528,530,223.8528,542,211.8528,554,117.7351,554,105.7351,542,117.7351,530" style="stroke:#334155;stroke-width:0.5;"/><text fill="#000000" font-family="Helvetica" font-size="11" lengthAdjust="spacing" textLength="94.1177" x="117.7351" y="544.9702">&#26159;&#21542;&#38656;&#35201;&#35775;&#38382;&#25511;&#21046;?</text><text fill="#000000" font-family="Helvetica" font-size="11" lengthAdjust="spacing" textLength="11" x="94.7351" y="539.4702">&#26159;</text><text fill="#000000" font-family="Helvetica" font-size="11" lengthAdjust="spacing" textLength="11" x="223.8528" y="539.4702">&#21542;</text><rect fill="#F8FAFC" height="32" rx="12.5" ry="12.5" style="stroke:#334155;stroke-width:0.5;" width="161.0586" x="11" y="564"/><text fill="#000000" font-family="Helvetica" font-size="12" lengthAdjust="spacing" textLength="141.0586" x="21" y="583.2402">&#35774;&#32622;&#39033;&#30446; requireAuth=true</text><rect fill="#F8FAFC" height="32" rx="12.5" ry="12.5" style="stroke:#334155;stroke-width:0.5;" width="127.9941" x="27.5322" y="616"/><text fill="#000000" font-family="Helvetica" font-size="12" lengthAdjust="spacing" textLength="107.9941" x="37.5322" y="635.2402">&#20851;&#32852; cNFT &#35775;&#38382;&#20973;&#35777;</text><rect fill="#F8FAFC" height="32" rx="12.5" ry="12.5" style="stroke:#334155;stroke-width:0.5;" width="92" x="192.0586" y="564"/><text fill="#000000" font-family="Helvetica" font-size="12" lengthAdjust="spacing" textLength="72" x="202.0586" y="583.2402">&#20445;&#25345;&#20844;&#24320;&#35775;&#38382;</text><polygon fill="#F8FAFC" points="164.7939,654,176.7939,666,164.7939,678,152.7939,666,164.7939,654" style="stroke:#334155;stroke-width:0.5;"/><rect fill="#F8FAFC" height="32" rx="12.5" ry="12.5" style="stroke:#334155;stroke-width:0.5;" width="128" x="100.7939" y="698"/><text fill="#000000" font-family="Helvetica" font-size="12" lengthAdjust="spacing" textLength="108" x="110.7939" y="717.2402">&#21069;&#21488;&#25353;&#29256;&#26412;&#23637;&#31034;&#25991;&#26723;</text><ellipse cx="164.7939" cy="761" fill="none" rx="11" ry="11" style="stroke:#222222;stroke-width:1;"/><ellipse cx="164.7939" cy="761" fill="#222222" rx="6" ry="6" style="stroke:#222222;stroke-width:1;"/><line style="stroke:#334155;stroke-width:1;" x1="164.7939" x2="164.7939" y1="30" y2="50"/><polygon fill="#334155" points="160.7939,40,164.7939,50,168.7939,40,164.7939,44" style="stroke:#334155;stroke-width:1;"/><line style="stroke:#334155;stroke-width:1;" x1="164.7939" x2="164.7939" y1="82" y2="102"/><polygon fill="#334155" points="160.7939,92,164.7939,102,168.7939,92,164.7939,96" style="stroke:#334155;stroke-width:1;"/><line style="stroke:#334155;stroke-width:1;" x1="164.7939" x2="164.7939" y1="134" y2="154"/><polygon fill="#334155" points="160.7939,144,164.7939,154,168.7939,144,164.7939,148" style="stroke:#334155;stroke-width:1;"/><line style="stroke:#334155;stroke-width:1;" x1="164.7939" x2="164.7939" y1="186" y2="206"/><polygon fill="#334155" points="160.7939,196,164.7939,206,168.7939,196,164.7939,200" style="stroke:#334155;stroke-width:1;"/><line style="stroke:#334155;stroke-width:1;" x1="164.7939" x2="164.7939" y1="238" y2="258"/><polygon fill="#334155" points="160.7939,248,164.7939,258,168.7939,248,164.7939,252" style="stroke:#334155;stroke-width:1;"/><line style="stroke:#334155;stroke-width:1;" x1="164.7939" x2="164.7939" y1="290" y2="310"/><polygon fill="#334155" points="160.7939,300,164.7939,310,168.7939,300,164.7939,304" style="stroke:#334155;stroke-width:1;"/><line style="stroke:#334155;stroke-width:1;" x1="105.7351" x2="95.7351" y1="374" y2="374"/><line style="stroke:#334155;stroke-width:1;" x1="95.7351" x2="95.7351" y1="374" y2="396"/><polygon fill="#334155" points="91.7351,386,95.7351,396,99.7351,386,95.7351,390" style="stroke:#334155;stroke-width:1;"/><line style="stroke:#334155;stroke-width:1;" x1="223.8528" x2="233.8528" y1="374" y2="374"/><line style="stroke:#334155;stroke-width:1;" x1="233.8528" x2="233.8528" y1="374" y2="396"/><polygon fill="#334155" points="229.8528,386,233.8528,396,237.8528,386,233.8528,390" style="stroke:#334155;stroke-width:1;"/><line style="stroke:#334155;stroke-width:1;" x1="95.7351" x2="95.7351" y1="428" y2="446"/><line style="stroke:#334155;stroke-width:1;" x1="95.7351" x2="152.7939" y1="446" y2="446"/><polygon fill="#334155" points="142.7939,442,152.7939,446,142.7939,450,146.7939,446" style="stroke:#334155;stroke-width:1;"/><line style="stroke:#334155;stroke-width:1;" x1="233.8528" x2="233.8528" y1="428" y2="446"/><line style="stroke:#334155;stroke-width:1;" x1="233.8528" x2="176.7939" y1="446" y2="446"/><polygon fill="#334155" points="186.7939,442,176.7939,446,186.7939,450,182.7939,446" style="stroke:#334155;stroke-width:1;"/><line style="stroke:#334155;stroke-width:1;" x1="164.7939" x2="164.7939" y1="342" y2="362"/><polygon fill="#334155" points="160.7939,352,164.7939,362,168.7939,352,164.7939,356" style="stroke:#334155;stroke-width:1;"/><line style="stroke:#334155;stroke-width:1;" x1="164.7939" x2="164.7939" y1="458" y2="478"/><polygon fill="#334155" points="160.7939,468,164.7939,478,168.7939,468,164.7939,472" style="stroke:#334155;stroke-width:1;"/><line style="stroke:#334155;stroke-width:1;" x1="91.5293" x2="91.5293" y1="596" y2="616"/><polygon fill="#334155" points="87.5293,606,91.5293,616,95.5293,606,91.5293,610" style="stroke:#334155;stroke-width:1;"/><line style="stroke:#334155;stroke-width:1;" x1="105.7351" x2="91.5293" y1="542" y2="542"/><line style="stroke:#334155;stroke-width:1;" x1="91.5293" x2="91.5293" y1="542" y2="564"/><polygon fill="#334155" points="87.5293,554,91.5293,564,95.5293,554,91.5293,558" style="stroke:#334155;stroke-width:1;"/><line style="stroke:#334155;stroke-width:1;" x1="223.8528" x2="238.0586" y1="542" y2="542"/><line style="stroke:#334155;stroke-width:1;" x1="238.0586" x2="238.0586" y1="542" y2="564"/><polygon fill="#334155" points="234.0586,554,238.0586,564,242.0586,554,238.0586,558" style="stroke:#334155;stroke-width:1;"/><line style="stroke:#334155;stroke-width:1;" x1="91.5293" x2="91.5293" y1="648" y2="666"/><line style="stroke:#334155;stroke-width:1;" x1="91.5293" x2="152.7939" y1="666" y2="666"/><polygon fill="#334155" points="142.7939,662,152.7939,666,142.7939,670,146.7939,666" style="stroke:#334155;stroke-width:1;"/><line style="stroke:#334155;stroke-width:1;" x1="238.0586" x2="238.0586" y1="596" y2="666"/><line style="stroke:#334155;stroke-width:1;" x1="238.0586" x2="176.7939" y1="666" y2="666"/><polygon fill="#334155" points="186.7939,662,176.7939,666,186.7939,670,182.7939,666" style="stroke:#334155;stroke-width:1;"/><line style="stroke:#334155;stroke-width:1;" x1="164.7939" x2="164.7939" y1="510" y2="530"/><polygon fill="#334155" points="160.7939,520,164.7939,530,168.7939,520,164.7939,524" style="stroke:#334155;stroke-width:1;"/><line style="stroke:#334155;stroke-width:1;" x1="164.7939" x2="164.7939" y1="678" y2="698"/><polygon fill="#334155" points="160.7939,688,164.7939,698,168.7939,688,164.7939,692" style="stroke:#334155;stroke-width:1;"/><line style="stroke:#334155;stroke-width:1;" x1="164.7939" x2="164.7939" y1="730" y2="750"/><polygon fill="#334155" points="160.7939,740,164.7939,750,168.7939,740,164.7939,744" style="stroke:#334155;stroke-width:1;"/></g></svg>