<?plantuml 1.2026.2?><svg xmlns="http://www.w3.org/2000/svg" xmlns:xlink="http://www.w3.org/1999/xlink" contentStyleType="text/css" data-diagram-type="CLASS" height="293px" preserveAspectRatio="none" style="width:196px;height:293px;background:#FFFFFF;" version="1.1" viewBox="0 0 196 293" width="196px" zoomAndPan="magnify"><defs/><g><!--class MerkleTree--><g class="entity" data-qualified-name="MerkleTree" data-source-line="7" id="ent0002"><rect fill="#F8FAFC" height="272" rx="2.5" ry="2.5" style="stroke:#334155;stroke-width:0.5;" width="175.3857" x="7" y="7"/><ellipse cx="55.0464" cy="23" fill="#ADD1B2" rx="11" ry="11" style="stroke:#181818;stroke-width:1;"/><path d="M57.5195,29.1431 Q56.9385,29.4419 56.2993,29.5913 Q55.6602,29.7407 54.9546,29.7407 Q52.4478,29.7407 51.1279,28.0889 Q49.8081,26.437 49.8081,23.3159 Q49.8081,20.1865 51.1279,18.5347 Q52.4478,16.8828 54.9546,16.8828 Q55.6602,16.8828 56.3076,17.0322 Q56.9551,17.1816 57.5195,17.4805 L57.5195,20.2031 Q56.8887,19.6221 56.2952,19.3523 Q55.7017,19.0825 55.0708,19.0825 Q53.7261,19.0825 53.0413,20.1492 Q52.3564,21.2158 52.3564,23.3159 Q52.3564,25.4077 53.0413,26.4744 Q53.7261,27.541 55.0708,27.541 Q55.7017,27.541 56.2952,27.2712 Q56.8887,27.0015 57.5195,26.4204 Z " fill="#000000"/><text fill="#000000" font-family="Helvetica" font-size="14" lengthAdjust="spacing" textLength="70.793" x="75.5464" y="26.7803">MerkleTree</text><line style="stroke:#334155;stroke-width:0.5;" x1="8" x2="181.3857" y1="39" y2="39"/><g data-visibility-modifier="PUBLIC_FIELD"><ellipse cx="18" cy="51.5" fill="none" rx="3" ry="3" style="stroke:#038048;stroke-width:1;"/></g><text fill="#000000" font-family="Helvetica" font-size="14" lengthAdjust="spacing" textLength="54.4756" x="27" y="53.7803">id: BigInt</text><g data-visibility-modifier="PUBLIC_FIELD"><ellipse cx="18" cy="65.5" fill="none" rx="3" ry="3" style="stroke:#038048;stroke-width:1;"/></g><text fill="#000000" font-family="Helvetica" font-size="14" lengthAdjust="spacing" textLength="79.3721" x="27" y="67.7803">name: String</text><g data-visibility-modifier="PUBLIC_FIELD"><ellipse cx="18" cy="79.5" fill="none" rx="3" ry="3" style="stroke:#038048;stroke-width:1;"/></g><text fill="#000000" font-family="Helvetica" font-size="14" lengthAdjust="spacing" textLength="119.834" x="27" y="81.7803">treeAddress: String</text><g data-visibility-modifier="PUBLIC_FIELD"><ellipse cx="18" cy="93.5" fill="none" rx="3" ry="3" style="stroke:#038048;stroke-width:1;"/></g><text fill="#000000" font-family="Helvetica" font-size="14" lengthAdjust="spacing" textLength="123.7236" x="27" y="95.7803">treeAuthority: String</text><g data-visibility-modifier="PUBLIC_FIELD"><ellipse cx="18" cy="107.5" fill="none" rx="3" ry="3" style="stroke:#038048;stroke-width:1;"/></g><text fill="#000000" font-family="Helvetica" font-size="14" lengthAdjust="spacing" textLength="120.6133" x="27" y="109.7803">encryptedKey: Text</text><g data-visibility-modifier="PUBLIC_FIELD"><ellipse cx="18" cy="121.5" fill="none" rx="3" ry="3" style="stroke:#038048;stroke-width:1;"/></g><text fill="#000000" font-family="Helvetica" font-size="14" lengthAdjust="spacing" textLength="139.2822" x="27" y="123.7803">creatorAddress: String</text><g data-visibility-modifier="PUBLIC_FIELD"><ellipse cx="18" cy="135.5" fill="none" rx="3" ry="3" style="stroke:#038048;stroke-width:1;"/></g><text fill="#000000" font-family="Helvetica" font-size="14" lengthAdjust="spacing" textLength="122.1582" x="27" y="137.7803">maxDepth: SmallInt</text><g data-visibility-modifier="PUBLIC_FIELD"><ellipse cx="18" cy="149.5" fill="none" rx="3" ry="3" style="stroke:#038048;stroke-width:1;"/></g><text fill="#000000" font-family="Helvetica" font-size="14" lengthAdjust="spacing" textLength="149.3857" x="27" y="151.7803">maxBufferSize: SmallInt</text><g data-visibility-modifier="PUBLIC_FIELD"><ellipse cx="18" cy="163.5" fill="none" rx="3" ry="3" style="stroke:#038048;stroke-width:1;"/></g><text fill="#000000" font-family="Helvetica" font-size="14" lengthAdjust="spacing" textLength="140.8545" x="27" y="165.7803">canopyDepth: SmallInt</text><g data-visibility-modifier="PUBLIC_FIELD"><ellipse cx="18" cy="177.5" fill="none" rx="3" ry="3" style="stroke:#038048;stroke-width:1;"/></g><text fill="#000000" font-family="Helvetica" font-size="14" lengthAdjust="spacing" textLength="93.3721" x="27" y="179.7803">network: String</text><g data-visibility-modifier="PUBLIC_FIELD"><ellipse cx="18" cy="191.5" fill="none" rx="3" ry="3" style="stroke:#038048;stroke-width:1;"/></g><text fill="#000000" font-family="Helvetica" font-size="14" lengthAdjust="spacing" textLength="91.8271" x="27" y="193.7803">totalMinted: Int</text><g data-visibility-modifier="PUBLIC_FIELD"><ellipse cx="18" cy="205.5" fill="none" rx="3" ry="3" style="stroke:#038048;stroke-width:1;"/></g><text fill="#000000" font-family="Helvetica" font-size="14" lengthAdjust="spacing" textLength="124.4961" x="27" y="207.7803">maxCapacity: BigInt</text><g data-visibility-modifier="PUBLIC_FIELD"><ellipse cx="18" cy="219.5" fill="none" rx="3" ry="3" style="stroke:#038048;stroke-width:1;"/></g><text fill="#000000" font-family="Helvetica" font-size="14" lengthAdjust="spacing" textLength="122.1719" x="27" y="221.7803">creationCost: BigInt</text><g data-visibility-modifier="PUBLIC_FIELD"><ellipse cx="18" cy="233.5" fill="none" rx="3" ry="3" style="stroke:#038048;stroke-width:1;"/></g><text fill="#000000" font-family="Helvetica" font-size="14" lengthAdjust="spacing" textLength="122.958" x="27" y="235.7803">txSignature: String?</text><g data-visibility-modifier="PUBLIC_FIELD"><ellipse cx="18" cy="247.5" fill="none" rx="3" ry="3" style="stroke:#038048;stroke-width:1;"/></g><text fill="#000000" font-family="Helvetica" font-size="14" lengthAdjust="spacing" textLength="65.3516" x="27" y="249.7803">priority: Int</text><g data-visibility-modifier="PUBLIC_FIELD"><ellipse cx="18" cy="261.5" fill="none" rx="3" ry="3" style="stroke:#038048;stroke-width:1;"/></g><text fill="#000000" font-family="Helvetica" font-size="14" lengthAdjust="spacing" textLength="95.7031" x="27" y="263.7803">status: SmallInt</text><line style="stroke:#334155;stroke-width:0.5;" x1="8" x2="181.3857" y1="271" y2="271"/></g></g></svg>