<?plantuml 1.2026.2?><svg xmlns="http://www.w3.org/2000/svg" xmlns:xlink="http://www.w3.org/1999/xlink" contentStyleType="text/css" data-diagram-type="CLASS" height="181px" preserveAspectRatio="none" style="width:191px;height:181px;background:#FFFFFF;" version="1.1" viewBox="0 0 191 181" width="191px" zoomAndPan="magnify"><defs/><g><!--class Category--><g class="entity" data-qualified-name="Category" data-source-line="7" id="ent0002"><rect fill="#F8FAFC" height="160" rx="2.5" ry="2.5" style="stroke:#334155;stroke-width:0.5;" width="170.7441" x="7" y="7"/><ellipse cx="59.7188" cy="23" fill="#ADD1B2" rx="11" ry="11" style="stroke:#181818;stroke-width:1;"/><path d="M62.1919,29.1431 Q61.6108,29.4419 60.9717,29.5913 Q60.3325,29.7407 59.627,29.7407 Q57.1201,29.7407 55.8003,28.0889 Q54.4805,26.437 54.4805,23.3159 Q54.4805,20.1865 55.8003,18.5347 Q57.1201,16.8828 59.627,16.8828 Q60.3325,16.8828 60.98,17.0322 Q61.6274,17.1816 62.1919,17.4805 L62.1919,20.2031 Q61.561,19.6221 60.9675,19.3523 Q60.374,19.0825 59.7432,19.0825 Q58.3984,19.0825 57.7136,20.1492 Q57.0288,21.2158 57.0288,23.3159 Q57.0288,25.4077 57.7136,26.4744 Q58.3984,27.541 59.7432,27.541 Q60.374,27.541 60.9675,27.2712 Q61.561,27.0015 62.1919,26.4204 Z " fill="#000000"/><text fill="#000000" font-family="Helvetica" font-size="14" lengthAdjust="spacing" textLength="56.8066" x="80.2188" y="26.7803">Category</text><line style="stroke:#334155;stroke-width:0.5;" x1="8" x2="176.7441" y1="39" y2="39"/><g data-visibility-modifier="PUBLIC_FIELD"><ellipse cx="18" cy="51.5" fill="none" rx="3" ry="3" style="stroke:#038048;stroke-width:1;"/></g><text fill="#000000" font-family="Helvetica" font-size="14" lengthAdjust="spacing" textLength="54.4756" x="27" y="53.7803">id: BigInt</text><g data-visibility-modifier="PUBLIC_FIELD"><ellipse cx="18" cy="65.5" fill="none" rx="3" ry="3" style="stroke:#038048;stroke-width:1;"/></g><text fill="#000000" font-family="Helvetica" font-size="14" lengthAdjust="spacing" textLength="144.7441" x="27" y="67.7803">projectVersionId: BigInt</text><g data-visibility-modifier="PUBLIC_FIELD"><ellipse cx="18" cy="79.5" fill="none" rx="3" ry="3" style="stroke:#038048;stroke-width:1;"/></g><text fill="#000000" font-family="Helvetica" font-size="14" lengthAdjust="spacing" textLength="135.3926" x="27" y="81.7803">categoryName: String</text><g data-visibility-modifier="PUBLIC_FIELD"><ellipse cx="18" cy="93.5" fill="none" rx="3" ry="3" style="stroke:#038048;stroke-width:1;"/></g><text fill="#000000" font-family="Helvetica" font-size="14" lengthAdjust="spacing" textLength="63.8135" x="27" y="95.7803">weight: Int</text><g data-visibility-modifier="PUBLIC_FIELD"><ellipse cx="18" cy="107.5" fill="none" rx="3" ry="3" style="stroke:#038048;stroke-width:1;"/></g><text fill="#000000" font-family="Helvetica" font-size="14" lengthAdjust="spacing" textLength="95.7031" x="27" y="109.7803">status: SmallInt</text><g data-visibility-modifier="PUBLIC_FIELD"><ellipse cx="18" cy="121.5" fill="none" rx="3" ry="3" style="stroke:#038048;stroke-width:1;"/></g><text fill="#000000" font-family="Helvetica" font-size="14" lengthAdjust="spacing" textLength="128.3857" x="27" y="123.7803">createdAt: DateTime</text><g data-visibility-modifier="PUBLIC_FIELD"><ellipse cx="18" cy="135.5" fill="none" rx="3" ry="3" style="stroke:#038048;stroke-width:1;"/></g><text fill="#000000" font-family="Helvetica" font-size="14" lengthAdjust="spacing" textLength="132.2959" x="27" y="137.7803">updatedAt: DateTime</text><g data-visibility-modifier="PUBLIC_FIELD"><ellipse cx="18" cy="149.5" fill="none" rx="3" ry="3" style="stroke:#038048;stroke-width:1;"/></g><text fill="#000000" font-family="Helvetica" font-size="14" lengthAdjust="spacing" textLength="117.5234" x="27" y="151.7803">isDeleted: Boolean</text><line style="stroke:#334155;stroke-width:0.5;" x1="8" x2="176.7441" y1="159" y2="159"/></g></g></svg>