<?plantuml 1.2026.2?><svg xmlns="http://www.w3.org/2000/svg" xmlns:xlink="http://www.w3.org/1999/xlink" contentStyleType="text/css" data-diagram-type="SEQUENCE" height="447px" preserveAspectRatio="none" style="width:541px;height:447px;background:#FFFFFF;" version="1.1" viewBox="0 0 541 447" width="541px" zoomAndPan="magnify"><defs/><g><g><title>.....</title><rect fill="#FFFFFF" height="81" style="stroke:#181818;stroke-width:1;" width="10" x="287" y="135"/></g><g><title>....</title><rect fill="#FFFFFF" height="81" style="stroke:#181818;stroke-width:1;" width="10" x="374" y="243"/></g><g class="participant-lifeline" data-entity-uid="part1" data-qualified-name="User" id="part1-lifeline"><g><title>....</title><rect fill="#000000" fill-opacity="0.00000" height="290" width="8" x="32" y="79"/><line style="stroke:#181818;stroke-width:0.5;stroke-dasharray:5,5;" x1="36" x2="36" y1="79" y2="369"/></g></g><g class="participant-lifeline" data-entity-uid="part2" data-qualified-name="Page" id="part2-lifeline"><g><title>.....</title><rect fill="#000000" fill-opacity="0.00000" height="290" width="8" x="147" y="79"/><line style="stroke:#181818;stroke-width:0.5;stroke-dasharray:5,5;" x1="151" x2="151" y1="79" y2="369"/></g></g><g class="participant-lifeline" data-entity-uid="part3" data-qualified-name="SidebarApi" id="part3-lifeline"><g><title>.....</title><rect fill="#000000" fill-opacity="0.00000" height="290" width="8" x="288" y="79"/><line style="stroke:#181818;stroke-width:0.5;stroke-dasharray:5,5;" x1="292" x2="292" y1="79" y2="369"/></g></g><g class="participant-lifeline" data-entity-uid="part4" data-qualified-name="NoteApi" id="part4-lifeline"><g><title>....</title><rect fill="#000000" fill-opacity="0.00000" height="290" width="8" x="375" y="79"/><line style="stroke:#181818;stroke-width:0.5;stroke-dasharray:5,5;" x1="379" x2="379" y1="79" y2="369"/></g></g><g class="participant-lifeline" data-entity-uid="part5" data-qualified-name="DB" id="part5-lifeline"><g><title>PostgreSQL</title><rect fill="#000000" fill-opacity="0.00000" height="290" width="8" x="495" y="79"/><line style="stroke:#181818;stroke-width:0.5;stroke-dasharray:5,5;" x1="498.8691" x2="498.8691" y1="79" y2="369"/></g></g><g class="participant participant-head" data-entity-uid="part1" data-qualified-name="User" id="part1-head"><text fill="#000000" font-family="Helvetica" font-size="14" lengthAdjust="spacing" textLength="56" x="5" y="75.7803">&#21069;&#21488;&#29992;&#25143;</text><ellipse cx="36" cy="13.5" fill="#E2E2F0" rx="8" ry="8" style="stroke:#181818;stroke-width:0.5;"/><path d="M36,21.5 L36,48.5 M23,29.5 L49,29.5 M36,48.5 L23,63.5 M36,48.5 L49,63.5" fill="none" style="stroke:#181818;stroke-width:0.5;"/></g><g class="participant participant-tail" data-entity-uid="part1" data-qualified-name="User" id="part1-tail"><text fill="#000000" font-family="Helvetica" font-size="14" lengthAdjust="spacing" textLength="56" x="5" y="378.7803">&#21069;&#21488;&#29992;&#25143;</text><ellipse cx="36" cy="390.5" fill="#E2E2F0" rx="8" ry="8" style="stroke:#181818;stroke-width:0.5;"/><path d="M36,398.5 L36,425.5 M23,406.5 L49,406.5 M36,425.5 L23,440.5 M36,425.5 L49,440.5" fill="none" style="stroke:#181818;stroke-width:0.5;"/></g><g class="participant participant-head" data-entity-uid="part2" data-qualified-name="Page" id="part2-head"><rect fill="#E2E8F0" height="28" rx="2.5" ry="2.5" style="stroke:#334155;stroke-width:0.5;" width="84" x="109" y="50"/><text fill="#000000" font-family="Helvetica" font-size="14" lengthAdjust="spacing" textLength="70" x="116" y="67.7803">&#25991;&#26723;&#38405;&#35835;&#39029;</text></g><g class="participant participant-tail" data-entity-uid="part2" data-qualified-name="Page" id="part2-tail"><rect fill="#E2E8F0" height="28" rx="2.5" ry="2.5" style="stroke:#334155;stroke-width:0.5;" width="84" x="109" y="368"/><text fill="#000000" font-family="Helvetica" font-size="14" lengthAdjust="spacing" textLength="70" x="116" y="385.7803">&#25991;&#26723;&#38405;&#35835;&#39029;</text></g><g class="participant participant-head" data-entity-uid="part3" data-qualified-name="SidebarApi" id="part3-head"><rect fill="#E2E8F0" height="28" rx="2.5" ry="2.5" style="stroke:#334155;stroke-width:0.5;" width="84" x="250" y="50"/><text fill="#000000" font-family="Helvetica" font-size="14" lengthAdjust="spacing" textLength="70" x="257" y="67.7803">&#20391;&#36793;&#26639;&#25509;&#21475;</text></g><g class="participant participant-tail" data-entity-uid="part3" data-qualified-name="SidebarApi" id="part3-tail"><rect fill="#E2E8F0" height="28" rx="2.5" ry="2.5" style="stroke:#334155;stroke-width:0.5;" width="84" x="250" y="368"/><text fill="#000000" font-family="Helvetica" font-size="14" lengthAdjust="spacing" textLength="70" x="257" y="385.7803">&#20391;&#36793;&#26639;&#25509;&#21475;</text></g><g class="participant participant-head" data-entity-uid="part4" data-qualified-name="NoteApi" id="part4-head"><rect fill="#E2E8F0" height="28" rx="2.5" ry="2.5" style="stroke:#334155;stroke-width:0.5;" width="70" x="344" y="50"/><text fill="#000000" font-family="Helvetica" font-size="14" lengthAdjust="spacing" textLength="56" x="351" y="67.7803">&#27491;&#25991;&#25509;&#21475;</text></g><g class="participant participant-tail" data-entity-uid="part4" data-qualified-name="NoteApi" id="part4-tail"><rect fill="#E2E8F0" height="28" rx="2.5" ry="2.5" style="stroke:#334155;stroke-width:0.5;" width="70" x="344" y="368"/><text fill="#000000" font-family="Helvetica" font-size="14" lengthAdjust="spacing" textLength="56" x="351" y="385.7803">&#27491;&#25991;&#25509;&#21475;</text></g><g class="participant participant-head" data-entity-uid="part5" data-qualified-name="DB" id="part5-head"><text fill="#000000" font-family="Helvetica" font-size="14" lengthAdjust="spacing" textLength="76.2617" x="457.8691" y="75.7803">PostgreSQL</text><path d="M481,29 C481,19 499,19 499,19 C499,19 517,19 517,29 L517,55 C517,65 499,65 499,65 C499,65 481,65 481,55 L481,29" fill="#E2E2F0" style="stroke:#181818;stroke-width:0.5;"/><path d="M481,29 C481,39 499,39 499,39 C499,39 517,39 517,29" fill="none" style="stroke:#181818;stroke-width:0.5;"/></g><g class="participant participant-tail" data-entity-uid="part5" data-qualified-name="DB" id="part5-tail"><text fill="#000000" font-family="Helvetica" font-size="14" lengthAdjust="spacing" textLength="76.2617" x="457.8691" y="378.7803">PostgreSQL</text><path d="M481,392 C481,382 499,382 499,382 C499,382 517,382 517,392 L517,418 C517,428 499,428 499,428 C499,428 481,428 481,418 L481,392" fill="#E2E2F0" style="stroke:#181818;stroke-width:0.5;"/><path d="M481,392 C481,402 499,402 499,402 C499,402 517,402 517,392" fill="none" style="stroke:#181818;stroke-width:0.5;"/></g><g><title>.....</title><rect fill="#FFFFFF" height="81" style="stroke:#181818;stroke-width:1;" width="10" x="287" y="135"/></g><g><title>....</title><rect fill="#FFFFFF" height="81" style="stroke:#181818;stroke-width:1;" width="10" x="374" y="243"/></g><g class="message" data-entity-1="part1" data-entity-2="part2" id="msg1"><polygon fill="#2563EB" points="139,104,149,108,139,112,143,108" style="stroke:#2563EB;stroke-width:1;"/><line style="stroke:#2563EB;stroke-width:1;" x1="36" x2="145" y1="108" y2="108"/><text fill="#000000" font-family="Helvetica" font-size="13" lengthAdjust="spacing" textLength="91" x="48" y="103.0103">&#36827;&#20837;&#29256;&#26412;&#25991;&#26723;&#39029;</text></g><g class="message" data-entity-1="part2" data-entity-2="part3" id="msg2"><polygon fill="#2563EB" points="275,131,285,135,275,139,279,135" style="stroke:#2563EB;stroke-width:1;"/><line style="stroke:#2563EB;stroke-width:1;" x1="151" x2="281" y1="135" y2="135"/><text fill="#000000" font-family="Helvetica" font-size="13" lengthAdjust="spacing" textLength="117" x="160.5" y="130.0103">&#35831;&#27714;&#20998;&#31867;&#19982;&#31508;&#35760;&#21015;&#34920;</text></g><g class="message" data-entity-1="part3" data-entity-2="part5" id="msg3"><polygon fill="#2563EB" points="487,158,497,162,487,166,491,162" style="stroke:#2563EB;stroke-width:1;"/><line style="stroke:#2563EB;stroke-width:1;" x1="297" x2="493" y1="162" y2="162"/><text fill="#000000" font-family="Helvetica" font-size="13" lengthAdjust="spacing" textLength="91" x="352.5" y="157.0103">&#26597;&#35810;&#20998;&#31867;&#21644;&#31508;&#35760;</text></g><g class="message" data-entity-1="part5" data-entity-2="part3" id="msg4"><polygon fill="#2563EB" points="308,185,298,189,308,193,304,189" style="stroke:#2563EB;stroke-width:1;"/><line style="stroke:#2563EB;stroke-width:1;stroke-dasharray:2,2;" x1="302" x2="498" y1="189" y2="189"/><text fill="#000000" font-family="Helvetica" font-size="13" lengthAdjust="spacing" textLength="91" x="352.5" y="184.0103">&#36820;&#22238;&#32467;&#26500;&#21270;&#30446;&#24405;</text></g><g class="message" data-entity-1="part3" data-entity-2="part2" id="msg5"><polygon fill="#2563EB" points="162,212,152,216,162,220,158,216" style="stroke:#2563EB;stroke-width:1;"/><line style="stroke:#2563EB;stroke-width:1;stroke-dasharray:2,2;" x1="156" x2="291" y1="216" y2="216"/><text fill="#000000" font-family="Helvetica" font-size="13" lengthAdjust="spacing" textLength="65" x="189" y="211.0103">&#20391;&#36793;&#26639;&#25968;&#25454;</text></g><g class="message" data-entity-1="part2" data-entity-2="part4" id="msg6"><polygon fill="#2563EB" points="362,239,372,243,362,247,366,243" style="stroke:#2563EB;stroke-width:1;"/><line style="stroke:#2563EB;stroke-width:1;" x1="151" x2="368" y1="243" y2="243"/><text fill="#000000" font-family="Helvetica" font-size="13" lengthAdjust="spacing" textLength="104" x="210.5" y="238.0103">&#35831;&#27714;&#40664;&#35748;&#31508;&#35760;&#27491;&#25991;</text></g><g class="message" data-entity-1="part4" data-entity-2="part5" id="msg7"><polygon fill="#2563EB" points="487,266,497,270,487,274,491,270" style="stroke:#2563EB;stroke-width:1;"/><line style="stroke:#2563EB;stroke-width:1;" x1="384" x2="493" y1="270" y2="270"/><text fill="#000000" font-family="Helvetica" font-size="13" lengthAdjust="spacing" textLength="91" x="396" y="265.0103">&#26597;&#35810;&#20027;&#29256;&#26412;&#20869;&#23481;</text></g><g class="message" data-entity-1="part5" data-entity-2="part4" id="msg8"><polygon fill="#2563EB" points="395,293,385,297,395,301,391,297" style="stroke:#2563EB;stroke-width:1;"/><line style="stroke:#2563EB;stroke-width:1;stroke-dasharray:2,2;" x1="389" x2="498" y1="297" y2="297"/><text fill="#000000" font-family="Helvetica" font-size="13" lengthAdjust="spacing" textLength="89.5781" x="396.7109" y="292.0103">Markdown &#27491;&#25991;</text></g><g class="message" data-entity-1="part4" data-entity-2="part2" id="msg9"><polygon fill="#2563EB" points="162,320,152,324,162,328,158,324" style="stroke:#2563EB;stroke-width:1;"/><line style="stroke:#2563EB;stroke-width:1;stroke-dasharray:2,2;" x1="156" x2="378" y1="324" y2="324"/><text fill="#000000" font-family="Helvetica" font-size="13" lengthAdjust="spacing" textLength="78" x="226" y="319.0103">&#36820;&#22238;&#27491;&#25991;&#20869;&#23481;</text></g><g class="message" data-entity-1="part2" data-entity-2="part1" id="msg10"><polygon fill="#2563EB" points="47,347,37,351,47,355,43,351" style="stroke:#2563EB;stroke-width:1;"/><line style="stroke:#2563EB;stroke-width:1;stroke-dasharray:2,2;" x1="41" x2="150" y1="351" y2="351"/><text fill="#000000" font-family="Helvetica" font-size="13" lengthAdjust="spacing" textLength="91" x="48" y="346.0103">&#28210;&#26579;&#27491;&#25991;&#19982;&#30446;&#24405;</text></g></g></svg>